<svg xmlns="http://www.w3.org/2000/svg" xmlns:xlink="http://www.w3.org/1999/xlink" viewBox="0 0 121.01 118.82"><defs><style>.cls-1,.cls-2,.cls-3,.cls-4{fill-rule:evenodd;}.cls-1,.cls-4{opacity:0.64;}.cls-1{fill:url(#linear-gradient);}.cls-2{fill:#007b70;}.cls-2,.cls-3{opacity:0.3;}.cls-3{fill:#106b60;}.cls-4{fill:url(#linear-gradient-2);}.cls-5{fill:url(#linear-gradient-3);}</style><linearGradient id="linear-gradient" x1="28.86" y1="139.71" x2="28.43" y2="-15.04" gradientUnits="userSpaceOnUse"><stop offset="0" stop-color="#007b70"/><stop offset="1" stop-color="#4eec91"/></linearGradient><linearGradient id="linear-gradient-2" x1="92.47" y1="139.55" x2="92.04" y2="-15.29" xlink:href="#linear-gradient"/><linearGradient id="linear-gradient-3" x1="75.43" y1="41.84" x2="45.58" y2="11.99" gradientUnits="userSpaceOnUse"><stop offset="0" stop-color="#3f92fc"/><stop offset="1" stop-color="#74d1fc"/></linearGradient></defs><g id="Layer_2" data-name="Layer 2"><g id="Icon"><path class="cls-1" d="M57.4,118.82C46,99.92,28.22,99.92,15.54,88.5-5,70-3.38,24.79,9.88,0,15.07,46.64,57.4,34.8,57.4,118.82"/><path class="cls-2" d="M57.4,118.82C46,99.92,28.22,99.92,15.54,88.5,7.67,81.41,3.05,70.37,1.1,58.06A40.48,40.48,0,0,1,13,56.29c16.9,0,31.86,10.47,41,26.53,2.15,9.64,3.44,21.36,3.44,36"/><path class="cls-3" d="M57.4,118.82C46,99.92,28.22,99.92,15.54,88.5-5,70-3.38,24.79,9.88,0-2.89,85.18,50.48,70.73,57.4,118.82"/><path class="cls-4" d="M63.61,118.82c11.45-18.9,29.18-18.9,41.86-30.32C126,70,124.39,24.79,111.13,0c-5.19,46.64-47.52,34.8-47.52,118.82"/><path class="cls-2" d="M63.61,118.82c11.45-18.9,29.18-18.9,41.86-30.32,7.87-7.09,12.49-18.13,14.44-30.44a40.48,40.48,0,0,0-11.85-1.77c-16.9,0-31.85,10.47-41,26.53-2.15,9.64-3.44,21.36-3.44,36"/><path class="cls-3" d="M63.61,118.82c11.45-18.9,29.18-18.9,41.86-30.32C126,70,124.39,24.79,111.13,0c12.77,85.18-40.6,70.73-47.52,118.82"/><circle class="cls-5" cx="60.51" cy="26.91" r="21.11"/></g></g></svg>